<mxfile host="app.diagrams.net" modified="2023-07-18T18:34:04.811Z" agent="Mozilla/5.0 (Windows NT 10.0; Win64; x64) AppleWebKit/537.36 (KHTML, like Gecko) Chrome/114.0.0.0 Safari/537.36" version="21.6.2" etag="MN2UGLcudSA12nQtql4N" type="github">
  <diagram name="Page-1" id="fBmaVqy78J9ezTcokovw">
    <mxGraphModel>
      <root>
        <mxCell id="0" />
        <mxCell id="1" parent="0" />
      </root>
    </mxGraphModel>
  </diagram>
</mxfile>
